<?xml version="1.0" encoding="UTF-8" standalone="no"?>
<svg
   height="200px"
   width="200px"
   version="1.1"
   id="Layer_1"
   viewBox="0 0 512 512"
   sodipodi:docname="nextArrowFinal.svg"
   inkscape:version="1.3.2 (091e20e, 2023-11-25)"
   xmlns:inkscape="http://www.inkscape.org/namespaces/inkscape"
   xmlns:sodipodi="http://sodipodi.sourceforge.net/DTD/sodipodi-0.dtd"
   xmlns="http://www.w3.org/2000/svg"
   xmlns:svg="http://www.w3.org/2000/svg">
  <defs
     id="defs4" />
  <sodipodi:namedview
     id="namedview4"
     pagecolor="#ffffff"
     bordercolor="#000000"
     borderopacity="0.25"
     inkscape:showpageshadow="2"
     inkscape:pageopacity="0.0"
     inkscape:pagecheckerboard="0"
     inkscape:deskcolor="#d1d1d1"
     showgrid="false"
     inkscape:zoom="3.167781"
     inkscape:cx="107.17281"
     inkscape:cy="124.06161"
     inkscape:window-width="1920"
     inkscape:window-height="1027"
     inkscape:window-x="1728"
     inkscape:window-y="62"
     inkscape:window-maximized="1"
     inkscape:current-layer="Layer_1" />
  <g
     id="g4"
     style="display:inline"
     transform="matrix(-1,0,0,1,512,0)">
    <path
       fill="#248a9c"
       d="m 170.178,426.179 c -11.576,0 -22.46,-4.508 -30.646,-12.693 L 12.695,286.647 C 4.509,278.465 0,267.58 0,256 0,244.42 4.509,233.536 12.697,225.351 L 139.533,98.515 c 8.186,-8.186 19.069,-12.694 30.646,-12.694 11.576,0 22.46,4.508 30.647,12.694 16.897,16.9 16.896,44.396 0,61.293 l -52.851,52.851 H 468.662 C 492.558,212.66 512,232.102 512,256 c 0,23.898 -19.443,43.34 -43.339,43.34 H 147.973 l 52.851,52.851 c 8.178,8.177 12.682,19.06 12.682,30.647 0,11.586 -4.504,22.47 -12.683,30.647 h 0.001 c -0.001,0 -0.001,0 -0.001,0 -8.184,8.186 -19.068,12.694 -30.645,12.694 z m 0,-319.959 c -6.128,0 -11.887,2.387 -16.221,6.72 L 27.12,239.778 c -4.335,4.333 -6.721,10.093 -6.721,16.222 0,6.129 2.387,11.889 6.719,16.221 L 153.956,399.06 c 4.333,4.333 10.094,6.719 16.222,6.719 6.129,0 11.889,-2.387 16.222,-6.719 h 0.001 c 4.324,-4.324 6.706,-10.086 6.706,-16.222 0,-6.136 -2.382,-11.897 -6.706,-16.222 l -70.264,-70.263 c -2.916,-2.917 -3.789,-7.304 -2.21,-11.115 1.578,-3.81 5.296,-6.296 9.422,-6.296 h 345.31 c 12.651,10e-4 22.943,-10.291 22.943,-22.942 0,-12.651 -10.292,-22.942 -22.941,-22.942 H 123.349 c -4.126,0 -7.844,-2.486 -9.422,-6.296 -1.579,-3.811 -0.706,-8.198 2.21,-11.115 L 186.4,145.384 c 8.945,-8.945 8.945,-23.499 0,-32.446 -4.332,-4.332 -10.095,-6.718 -16.222,-6.718 z"
       id="path2" />
  </g>
  <path
     fill="#8ae9ff"
     d="m 318.388,406.274 c -6.252,-6.251 -9.694,-14.574 -9.694,-23.435 0,-8.86 3.442,-17.183 9.694,-23.434 l 70.263,-70.263 H 43.34 C 25.066,289.141 10.2,274.275 10.2,256 c 0,-18.275 14.866,-33.141 33.14,-33.141 h 345.311 l -70.263,-70.263 c -12.921,-12.921 -12.921,-33.946 -10e-4,-46.868 6.259,-6.259 14.582,-9.707 23.435,-9.707 8.852,0 17.174,3.447 23.433,9.707 l 126.838,126.838 c 6.26,6.258 9.708,14.581 9.708,23.434 0,8.853 -3.447,17.175 -9.708,23.435 L 365.256,406.273 c -6.259,6.259 -14.582,9.707 -23.434,9.707 -8.854,0 -17.175,-3.448 -23.434,-9.706 z"
     id="path1"
     inkscape:label="path1" />
  <path
     fill="#248a9c"
     d="m 399.58157,335.35829 c 1.57585,0 3.1505,-0.60113 4.35277,-1.80279 l 1.22097,-1.22037 c 2.40392,-2.40392 2.40392,-6.30162 0,-8.70614 -2.40453,-2.40332 -6.30101,-2.40332 -8.70614,0 l -1.22098,1.22037 c -2.40392,2.40392 -2.40392,6.30161 0,8.70614 1.20287,1.20105 2.77812,1.80279 4.35338,1.80279 z"
     id="path3"
     style="stroke-width:0.603545" />
  <path
     fill="#248a9c"
     d="m 416.21729,319.52067 c 1.78045,0 3.55954,-0.67917 4.91789,-2.03684 l 36.32906,-36.32838 c 2.71601,-2.71602 2.71601,-7.11975 0,-9.83645 -2.71671,-2.71533 -7.11907,-2.71533 -9.83645,0 l -36.32906,36.32838 c -2.71602,2.71602 -2.71602,7.11975 0,9.83645 1.35903,1.35835 3.1388,2.03684 4.91856,2.03684 z"
     id="path4"
     style="stroke-width:0.681903" />
</svg>
